<?xml version="1.0" encoding="utf-8"?>
<!-- Generator: Adobe Illustrator 16.0.4, SVG Export Plug-In . SVG Version: 6.00 Build 0)  -->
<!DOCTYPE svg PUBLIC "-//W3C//DTD SVG 1.1//EN" "http://www.w3.org/Graphics/SVG/1.1/DTD/svg11.dtd">
<svg version="1.1" id="Layer_1" xmlns="http://www.w3.org/2000/svg" xmlns:xlink="http://www.w3.org/1999/xlink" x="0px" y="0px"
	 width="792px" height="612px" viewBox="0 0 792 612" enable-background="new 0 0 792 612" xml:space="preserve">
<g id="blob2">
	<path opacity="0.5" fill="#1B4693" enable-background="new    " d="M279.5,77.647c-32.667,1.333-34.819,49.663-62.538,39.323
		c-28.817-10.75,15.538-39.323-10.628-84.47c-30.833-50-125,3-125,90.833c0,33.934,45.977,72.32,79.91,72.32
		c11.538,0,26.901-11.936,49.901-0.186c19.888,10.16,33.362,20.032,64.356,20.032c33.934,0,55-27.066,55-61
		C330.5,120.567,313.405,76.265,279.5,77.647z"/>
</g>
<g id="blob1">
	<path opacity="0.5" fill="#1B4693" enable-background="new    " d="M286.5,244.5c-11.537,0-37,15-61-58S187.369,87.128,156,78.667
		c-32.762-8.838-81.202,24.208-93.5,55.833c-21,54-84,203-28,219c38.417,4,113-188,182-126s97.006,220,128,220
		c33.934,0,94-257,68-292C392.264,128.26,320.434,244.5,286.5,244.5z"/>
</g>
<g id="blob1_1_">
	<path opacity="0.5" fill="#1B4693" enable-background="new    " d="M324.5,365.5c-11.537,0-37,15-61-58
		s-38.131-99.372-69.5-107.833c-32.762-8.838-81.202,24.208-93.5,55.833c-21,54-84,203-28,219c61.84,15.943,24.04-76.036,33-135
		c9.586-63.082,64.752-93.046,100.417-61c69,62,9.445,160,98.583,219c56.025,37.083,338.973,49.382,369-81c38-165-66-332-145-332
		C451.5,84.5,358.434,365.5,324.5,365.5z"/>
</g>
</svg>
