<?xml version="1.0" encoding="utf-8"?>
<!-- Generator: Adobe Illustrator 16.0.4, SVG Export Plug-In . SVG Version: 6.00 Build 0)  -->
<!DOCTYPE svg PUBLIC "-//W3C//DTD SVG 1.1//EN" "http://www.w3.org/Graphics/SVG/1.1/DTD/svg11.dtd">
<svg version="1.1" id="Layer_1" xmlns="http://www.w3.org/2000/svg" xmlns:xlink="http://www.w3.org/1999/xlink" x="0px" y="0px"
	 width="792px" height="612px" viewBox="0 0 792 612" enable-background="new 0 0 792 612" xml:space="preserve">
<path id="blob1b" opacity="0.5" fill="#1B4693" enable-background="new    " d="M445.667,255.667
	C413,257,423.681,280.31,395.962,269.97C367.145,259.22,386.369,219.461,355,211c-32.762-8.838-94.667,31.402-94.667,65.333
	c0,33.934,45.977,72.32,79.91,72.32c11.538,0,26.901-11.935,49.901-0.185c19.888,10.16,25.861,34.197,56.855,34.197
	c33.934,0,44-17.733,44-51.667C490.999,297.065,479.572,254.284,445.667,255.667z"/>
<path id="blob1a" opacity="0.5" fill="#1B4693" enable-background="new    " d="M458.909,271.869
	c-11.537,0-37.19,34.686-64.909,24.346c-28.817-10.75-27.631-56.087-59-64.548c-32.762-8.838-59,41.735-59,75.667
	c0,33.934,32.562,63.915,64.333,52c26.667-10,32.667-10.75,55.667,1c19.888,10.16,10.673,45,41.667,45c33.934,0,57-41.066,57-75
	C494.667,296.4,492.843,271.869,458.909,271.869z"/>
<path id="blob2b" opacity="0.8" fill="#BC1F46" enable-background="new    " d="M374.271,355.163
	c-8.333,41.837-24.938,58.171-61.441,61.44c-35.271,3.16-56.83-27.271-61.44-61.44c-4.537-33.628,25.937-69.051,61.44-61.44
	C348.333,301.334,382.228,315.22,374.271,355.163z"/>
<path id="blob2a_1_" opacity="0.8" fill="#BC1F46" enable-background="new    " d="M331,351.258
	c-8.333,41.837,18.695,78.973-17.808,82.242c-35.271,3.16-38.582-41.83-43.192-76c-4.537-33.628,11.997-95.611,47.5-88
	C353.003,277.111,338.957,311.314,331,351.258z"/>
<path id="blob3b" opacity="0.7" fill="#29C1A7" d="M504.545,289.116c33.591-23.817,56.342-64.616,36.342-99.616
	c-9.848-17.234-57-24-77.166-58c-9.389-15.829-33.834-39-60.834-24s-11.862,36.751-8.862,71.801
	c3,35.049-19.138,61.199-2.319,99.199C401.316,300.215,474.387,310.5,504.545,289.116z"/>
<path id="blob3a" opacity="0.7" fill="#29C1A7" d="M499.727,285.81c33.591-23.817,35-53.488,15-88.488
	c-9.848-17.234,10.166-61.358-10-95.358c-9.389-15.829-66.802-10.153-93.802,4.847s-58.032,43.951-55.032,79
	c3.001,35.049,51.015,28.263,67.834,66.263C433.337,273.787,469.568,307.193,499.727,285.81z"/>
<path id="blob4b" opacity="0.6" fill="#ED842E" d="M293.232,257.5c3.69,19.682-26,89.698-5,89.85c21,0.15,39.273-17.85,41.833-40.85
	s15.667-59.598,15.667-71c0-21-10.862-79-25.06-79S287.232,225.5,293.232,257.5z"/>
<path id="blob4a" opacity="0.6" fill="#ED842E" d="M241.5,110.5c3.69,19.682,35,66.849,56,67c21,0.15,32.44-16,35-39
	s42.943-25.46,42.943-36.862c0-21-30.614-33.138-44.812-33.138S235.5,78.5,241.5,110.5z"/>
<ellipse id="clip" fill="none" stroke="#001F46" stroke-width="1.0331" stroke-miterlimit="10" cx="389.017" cy="276.858" rx="115.13" ry="250"/>
<polygon fill="#666666" points="520.16,551.5 258.01,551.5 308.313,455.13 469.855,455.13 "/>
<polygon fill="#666666" points="467.566,92.496 310.978,92.496 347.008,3.834 431.535,3.834 "/>
</svg>
