<?xml version="1.0" encoding="utf-8"?>
<!-- Generator: Adobe Illustrator 16.0.4, SVG Export Plug-In . SVG Version: 6.00 Build 0)  -->
<!DOCTYPE svg PUBLIC "-//W3C//DTD SVG 1.1//EN" "http://www.w3.org/Graphics/SVG/1.1/DTD/svg11.dtd">
<svg version="1.1" xmlns="http://www.w3.org/2000/svg" xmlns:xlink="http://www.w3.org/1999/xlink" x="0px" y="0px" width="792px"
	 height="612px" viewBox="0 0 792 612" enable-background="new 0 0 792 612" xml:space="preserve">
<g id="blob2">
	<path opacity="0.5" fill="#1B4693" d="M445.667,255.667C413,257,423.681,280.31,395.962,269.97
		C367.145,259.22,386.369,219.461,355,211c-32.762-8.838-94.667,31.402-94.667,65.333c0,33.934,45.977,72.32,79.91,72.32
		c11.538,0,26.901-11.934,49.901-0.184c19.888,10.16,25.861,34.197,56.855,34.197c33.934,0,44-17.733,44-51.667
		S479.572,254.284,445.667,255.667z"/>
</g>
<g id="blob1">
	<path opacity="0.5" fill="#1B4693" d="M458.909,271.869c-11.537,0-37.19,34.686-64.909,24.346
		c-28.817-10.75-27.631-56.087-59-64.548c-32.762-8.838-59,41.735-59,75.667c0,33.934,32.562,63.915,64.333,52
		c26.667-10,32.667-10.75,55.667,1c19.888,10.16,10.673,45,41.667,45c33.934,0,57-41.066,57-75S492.843,271.869,458.909,271.869z"/>
</g>
<g id="Layer_3">
	<path opacity="0.8" fill="#BC1F46" d="M345,363.334c-8.333,41.837-28.125,50.227-64.628,53.497
		c-35.271,3.16-61.428-29.66-66.038-63.831c-4.537-33.628,46.83-94.611,82.333-87S352.957,323.391,345,363.334z"/>
</g>
<g id="Layer_3_copy">
	<path opacity="0.8" fill="#BC1F46" d="M374.271,355.163c-8.333,41.837-24.938,58.171-61.441,61.441
		c-35.271,3.16-56.83-27.271-61.44-61.441c-4.537-33.628,25.937-69.051,61.44-61.44S382.228,315.22,374.271,355.163z"/>
</g>
</svg>
