<?xml version="1.0" encoding="utf-8"?>
<!-- Generator: Adobe Illustrator 16.0.4, SVG Export Plug-In . SVG Version: 6.00 Build 0)  -->
<!DOCTYPE svg PUBLIC "-//W3C//DTD SVG 1.1//EN" "http://www.w3.org/Graphics/SVG/1.1/DTD/svg11.dtd">
<svg version="1.1" id="Layer_1" xmlns="http://www.w3.org/2000/svg" xmlns:xlink="http://www.w3.org/1999/xlink" x="0px" y="0px"
	 width="480.141px" height="88.749px" viewBox="0 0 480.141 88.749" enable-background="new 0 0 480.141 88.749"
	 xml:space="preserve">
<rect x="333.663" fill="#36C6F4" width="43.404" height="88.415"/>
<polygon fill="#36C6F4" points="304.925,0.334 348.329,0.334 304.996,88.749 261.592,88.749 "/>
<path fill="#36C6F4" d="M435.932,88.415c0,0,9.896,0,22.105,0c12.207,0,22.104-9.896,22.104-22.104s-9.896-22.104-22.104-22.104
	c12.207,0,22.104-9.896,22.104-22.104s-9.896-22.104-22.104-22.104c-12.209,0-22.105,0-22.105,0V88.415z"/>
<rect x="392.528" fill="#36C6F4" width="43.404" height="88.415"/>
<rect x="0.223" fill="#36C6F4" width="43.404" height="88.415"/>
<rect x="161.618" fill="#36C6F4" width="43.403" height="88.415"/>
<rect x="205.021" y="44.208" fill="#36C6F4" width="43.403" height="44.207"/>
<rect x="91.925" y="66.312" fill="#36C6F4" width="58.5" height="22.104"/>
<path fill="#36C6F4" d="M43.626,88.415c24.415,0,44.207-19.793,44.207-44.207C87.833,19.792,68.042,0,43.626,0V88.415z"/>
</svg>
