<?xml version="1.0" encoding="utf-8"?>
<!-- Generator: Adobe Illustrator 16.0.4, SVG Export Plug-In . SVG Version: 6.00 Build 0)  -->
<!DOCTYPE svg PUBLIC "-//W3C//DTD SVG 1.1//EN" "http://www.w3.org/Graphics/SVG/1.1/DTD/svg11.dtd">
<svg version="1.1" id="Layer_1" xmlns="http://www.w3.org/2000/svg" xmlns:xlink="http://www.w3.org/1999/xlink" x="0px" y="0px"
	 width="480.141px" height="88.749px" viewBox="0 0 480.141 88.749" enable-background="new 0 0 480.141 88.749"
	 xml:space="preserve">
<polygon fill="#36C6F4" points="333.663,0 333.663,0.334 304.925,0.334 261.592,88.749 304.996,88.749 333.663,30.258 
	333.663,88.415 377.067,88.415 377.067,0 "/>
<path fill="#36C6F4" d="M458.037,44.208c12.207,0,22.104-9.896,22.104-22.104s-9.896-22.104-22.104-22.104
	c-12.196,0-22.084,0-22.104,0V0h-43.404v88.415h43.403h0.001c0.021,0,9.908,0,22.104,0c12.207,0,22.104-9.896,22.104-22.104
	S470.244,44.208,458.037,44.208z"/>
<polygon fill="#36C6F4" points="205.021,66.312 205.021,0 161.618,0 161.618,88.415 205.021,88.415 248.425,88.415 248.425,66.312 
	"/>
<rect x="91.925" y="66.312" fill="#36C6F4" width="58.5" height="22.104"/>
<path fill="#36C6F4" d="M43.626,0H0.223v88.415h43.404c24.415,0,44.207-19.793,44.207-44.207C87.833,19.792,68.042,0,43.626,0z"/>
</svg>
