<?xml version="1.0" encoding="utf-8"?>
<!-- Generator: Adobe Illustrator 16.0.4, SVG Export Plug-In . SVG Version: 6.00 Build 0)  -->
<!DOCTYPE svg PUBLIC "-//W3C//DTD SVG 1.1//EN" "http://www.w3.org/Graphics/SVG/1.1/DTD/svg11.dtd">
<svg version="1.1" id="Layer_1" xmlns="http://www.w3.org/2000/svg" xmlns:xlink="http://www.w3.org/1999/xlink" x="0px" y="0px"
	 width="792px" height="612px" viewBox="0 0 792 612" enable-background="new 0 0 792 612" xml:space="preserve">
<g id="state2">
	<path fill="#9D23E5" d="M37.5,138.17l129-66.062c0,0,102.416,144.321,88.708,164.356C241.5,256.5,112.5,280.5,112.5,280.5
		L37.5,138.17z"/>
	<path fill="#FFAE0D" d="M143.324,163.199c0,0,41.177-8.791,69.056,10.301c26,17.805,25.12,54,25.12,54l-77,24L143.324,163.199z"/>
	<path fill="#25EFB5" d="M99.406,182.148l36.139-14.648l17.44,89c0,0-21.579-5.213-45.485-14
		C83.593,233.713,99.406,182.148,99.406,182.148z"/>
	<path fill="#E7F93D" d="M107.185,118.41h36.139v36.139c0,0-65.471,26.316-61.471,18.316S107.185,118.41,107.185,118.41z"/>
	<polygon fill="#8DDFFC" points="143.324,96.5 119.5,109.5 152.985,113.5 152.985,151.5 183.5,141.5 173.5,96.5 	"/>
</g>
<g id="state1">
	<path fill="#ED9495" d="M90.852,72.109h164.356c0,0,13.708,144.321,0,164.356c-13.708,20.035-164.356,0-164.356,0V72.109z"/>
	<path fill="#EBD194" d="M192.336,184.485c0,0,17.164-13.985,25.164-10.985s10.975,47.124,10.975,47.124h-36.139V184.485z"/>
	<path fill="#9FD7C8" d="M210.406,118.148h36.139v36.139c0,0-12.232,8.787-36.139,0C186.499,145.5,210.406,118.148,210.406,118.148z
		"/>
	<path fill="#DCE796" d="M117.832,90.426h36.139v36.139c0,0-14.471-16.065-10.471-24.065S117.832,90.426,117.832,90.426z"/>
	<polygon fill="#10FFF8" points="140.5,158.739 112.5,168.565 123.876,191.724 136.5,220.624 160.5,205.5 130.632,192.032 	"/>
</g>
</svg>
