<?xml version="1.0" encoding="utf-8"?>
<!-- Generator: Adobe Illustrator 16.0.4, SVG Export Plug-In . SVG Version: 6.00 Build 0)  -->
<!DOCTYPE svg PUBLIC "-//W3C//DTD SVG 1.1//EN" "http://www.w3.org/Graphics/SVG/1.1/DTD/svg11.dtd">
<svg version="1.1" id="Layer_1" xmlns="http://www.w3.org/2000/svg" xmlns:xlink="http://www.w3.org/1999/xlink" x="0px" y="0px"
	 width="792px" height="612px" viewBox="0 0 792 612" enable-background="new 0 0 792 612" xml:space="preserve">
<g id="state1">
	<path fill="#F99D30" d="M296.222,424.552c0,0-25.225-24.163-15.722-62.552c9.478-38.287,26-36,26-36s21.5-2,21.5,20
		c0,0,44.722-42.713,44.222-102.213c0,0,74.5,82.5,50,123.5c0,0,31.547-12.545,58.047,0.955c0,0-23.269,29.758-11.269,56.045
		c0,0-117.793,0.961-150.797,0.573C304.538,424.7,296.222,424.552,296.222,424.552z"/>
	<path fill="#F7E431" d="M440.722,425.25c0,0-2-26.963,6-41.463s-11-12-25,0s-39.5,28.5-51,10.5s-18.5-40.5-18.5-40.5
		s-29,15-30,27.5s10.484,43.725,10.484,43.725L440.722,425.25z"/>
	<path fill="#F7E431" d="M374.534,300.287c0,0,19.5,3.5,21.5,24.5S396,359.5,396,359.5s-16.1-17.5-19-34
		C375.604,317.56,374.534,300.287,374.534,300.287z"/>
	<path fill="#F7E431" d="M357,346c0,0-4-11.463,0-11.481s4.5-1.519,4.5,2.981S357,346,357,346z"/>
	<polygon fill="#D1C6BA" points="252.948,353.763 247.649,343.164 255.753,331.632 251.701,323.527 261.676,321.524 
		266.351,337.644 257,344.59 263.234,353.763 	"/>
	<polygon fill="#D1C6BA" points="462.938,336.906 451.062,332.219 447.625,316.281 452.625,306.594 464.476,318.961 
		476.375,320.746 467,327.711 473.25,336.906 	"/>
	<polygon fill="#D1C6BA" points="315.961,275.806 302.947,265.371 300.512,251.457 303.991,230.933 326.601,229.193 
		339.435,257.817 331.819,266.414 327.44,275.806 	"/>
</g>
<g id="state2">
	<path fill="#FCC68B" d="M318.203,424.552c0,0-19.642-40.307-16.981-79.765c3-44.5,41-81.5,41-81.5s-17.5,37-13.5,61
		c0,0-12.308,76.213,68.192,45.213c0,0,66.808-42.213,42.308-1.213c0,0,76.778-10.67,86.778-80.17c0,0-11.778,123.67-57,136.17
		c0,0-117.793,0.961-150.797,0.573C304.538,424.7,318.203,424.552,318.203,424.552z"/>
	<path fill="#FCF4B9" d="M440.722,425.25c0,0,36-23.481,32.5-46.963c0,0-22.882,12.418-47,19c-21,5.731-2.222,2.731-14.722-7.769
		c-16.355-13.738-56.278,8.981-56.278,8.981S338,393,337,405.5s-4.294,19.512-4.294,19.512L440.722,425.25z"/>
	<path fill="#F99D30" d="M422.932,247.068c0,0,2.471,7.38-1.666,19.045c-4.344,12.249-8.094,8.809-8.094,8.809
		s-2.61-3.305,0.237-12.379C417.07,250.877,422.932,247.068,422.932,247.068z"/>
	<path fill="#F99D30" d="M370,363c0,0-14.778-42-8.5-59.5c12.13-33.813,23.89-2,23.89,2.5C385.39,326,370,363,370,363z"/>
	<polygon opacity="0.1" fill="#D1C6BA" points="282,171.5 293.5,152.5 302.5,127.5 298.5,102.5 336.5,116 342.722,145.5 
		308.5,154.787 307,178.5 	"/>
	<polygon opacity="0.1" fill="#D1C6BA" points="533.25,200.5 513,197 495.5,169 520,152.5 539.5,143 564.5,156 551.997,180.789 
		561.997,195.502 	"/>
	<polygon opacity="0.1" fill="#D1C6BA" points="388.5,143 390.5,113 382.5,94 403.084,67 446.5,74.5 454.5,117.5 433,109 
		429.26,136 	"/>
</g>
</svg>
