<?xml version="1.0" encoding="utf-8"?>
<!-- Generator: Adobe Illustrator 16.0.4, SVG Export Plug-In . SVG Version: 6.00 Build 0)  -->
<!DOCTYPE svg PUBLIC "-//W3C//DTD SVG 1.1//EN" "http://www.w3.org/Graphics/SVG/1.1/DTD/svg11.dtd">
<svg version="1.1" xmlns="http://www.w3.org/2000/svg" xmlns:xlink="http://www.w3.org/1999/xlink" x="0px" y="0px" width="792px"
	 height="612px" viewBox="0 0 792 612" enable-background="new 0 0 792 612" xml:space="preserve">
<g id="shape1">
	<path id="path2" fill="#E93064" d="M440.957,163c-1.577,0-3.115,0.167-4.6,0.48c-5.374-12.09-15.096-21.812-27.186-27.186
		c0.313-1.484,0.48-3.022,0.48-4.599c0-12.246-9.927-22.174-22.173-22.174c-12.246,0-22.174,9.928-22.174,22.174
		c0,1.577,0.167,3.115,0.48,4.599c-12.091,5.375-21.812,15.096-27.187,27.186c-1.484-0.313-3.022-0.48-4.599-0.48
		c-12.246,0-22.174,9.928-22.174,22.174s9.928,22.174,22.174,22.174c1.577,0,3.115-0.167,4.599-0.48
		c5.374,12.09,15.096,21.812,27.186,27.186c-0.313,1.484-0.48,3.022-0.48,4.599c0,12.246,9.928,22.174,22.174,22.174
		c12.247,0,22.174-9.928,22.174-22.174c0-1.577-0.167-3.115-0.48-4.599c12.091-5.374,21.812-15.096,27.187-27.186
		c1.483,0.313,3.021,0.48,4.599,0.48c12.247,0,22.174-9.928,22.174-22.174S453.204,163,440.957,163z"/>
</g>
<g id="shape2">
	<path id="path1" fill="#E93064" d="M440.957,163c-1.577,0-26.617,10.437-27.41,10.604c-2.865-6.448-8.051-11.633-14.498-14.5
		c0.166-0.792,10.604-25.832,10.604-27.409c0-12.246-6.465-43.561-22.174-43.561c-15.708,0-22.173,31.315-22.173,43.561
		c0,1.577,10.437,26.617,10.604,27.409c-6.448,2.866-11.633,8.051-14.5,14.5C360.618,173.437,335.577,163,334,163
		c-12.246,0-43.562,6.466-43.562,22.174s31.315,22.174,43.562,22.174c1.577,0,26.618-10.437,27.409-10.604
		c2.866,6.448,8.051,11.633,14.5,14.5c-0.167,0.792-10.604,25.832-10.604,27.409c0,12.246,6.466,43.561,22.174,43.561
		c15.709,0,22.174-31.314,22.174-43.561c0-1.577-10.438-26.618-10.604-27.409c6.448-2.866,11.633-8.051,14.499-14.5
		c0.792,0.167,25.832,10.604,27.409,10.604c12.247,0,43.561-6.466,43.561-22.174S453.204,163,440.957,163z"/>
</g>
</svg>
